Coordinates
datacolumns 11
datarows 64
range 0 0.63
inDegrees=yes
Units are S.I. units (second, meters, Newtons, ...)
If the header above contains a line with 'inDegrees', this indicates whether rotational values are in degrees (yes) or radians (no).
endheader
time	pelvis_tilt	pelvis_tx	pelvis_ty	hip_flexion_l	hip_flexion_r	knee_angle_l	knee_angle_r	ankle_angle_l	ankle_angle_r	lumbar
0	16.09754934	-0.04227121	0.73231023	57.34122195	57.34122195	-79.46977564	-79.46977564	4.11856161	4.11856161	-29.88147524
0.01	16.08956932	-0.04218175	0.73232138	57.34076424	57.34076424	-79.47060359	-79.47060359	4.11859235	4.11859235	-29.88674799
0.02	16.08199061	-0.04210489	0.73234303	57.34247426	57.34247426	-79.47094946	-79.47094946	4.11882163	4.11882163	-29.89498257
0.03	16.07326611	-0.04202906	0.73236093	57.34399483	57.34399483	-79.47132548	-79.47132548	4.11909811	4.11909811	-29.90350112
0.04	16.06376651	-0.04197603	0.73237545	57.34937245	57.34937245	-79.47062585	-79.47062585	4.11985302	4.11985302	-29.91789447
0.05	16.05443552	-0.04192417	0.73238942	57.35414131	57.35414131	-79.46989512	-79.46989512	4.12068051	4.12068051	-29.93039018
0.06	16.04456538	-0.04187396	0.73240264	57.35924685	57.35924685	-79.4689389	-79.4689389	4.12166107	4.12166107	-29.94314842
0.07	16.0342184	-0.04182897	0.73241351	57.36529502	57.36529502	-79.46764127	-79.46764127	4.1228684	4.1228684	-29.95698512
0.08	16.02361808	-0.04178928	0.73242105	57.37219559	57.37219559	-79.46613401	-79.46613401	4.12429435	4.12429435	-29.97159495
0.09	16.01285798	-0.04175377	0.73242512	57.37979269	57.37979269	-79.46460115	-79.46460115	4.12590886	4.12590886	-29.98675941
0.1	16.00096574	-0.04175818	0.7324213	57.39471137	57.39471137	-79.46167328	-79.46167328	4.12920624	4.12920624	-30.00813202
0.11	15.99113355	-0.04169922	0.73242147	57.39726851	57.39726851	-79.46202148	-79.46202148	4.13015233	4.13015233	-30.01585724
0.12	15.97800779	-0.0417053	0.73241493	57.41423389	57.41423389	-79.45994246	-79.45994246	4.13372244	4.13372244	-30.04115242
0.13	15.96731993	-0.04165223	0.73241255	57.41806413	57.41806413	-79.46041778	-79.46041778	4.13487347	4.13487347	-30.05109477
0.14	15.95424178	-0.0416663	0.73240893	57.43584083	57.43584083	-79.45853602	-79.45853602	4.13817918	4.13817918	-30.07986164
0.15	15.94175468	-0.04162542	0.73240395	57.44232628	57.44232628	-79.45862746	-79.45862746	4.13969811	4.13969811	-30.09487046
0.16	15.92646561	-0.04167633	0.73238248	57.46791782	57.46791782	-79.45560265	-79.45560265	4.1450787	4.1450787	-30.13002073
0.17	15.91181931	-0.04162798	0.73239547	57.47319059	57.47319059	-79.4555563	-79.4555563	4.14645976	4.14645976	-30.14532904
0.18	15.89457798	-0.04169387	0.73238469	57.49907342	57.49907342	-79.44921843	-79.44921843	4.15133064	4.15133064	-30.18784478
0.19	15.87444211	-0.04171156	0.73238448	57.5185035	57.5185035	-79.44364944	-79.44364944	4.15629569	4.15629569	-30.21941549
0.2	15.85332624	-0.04174275	0.73238983	57.53929691	57.53929691	-79.43623551	-79.43623551	4.16086459	4.16086459	-30.25813407
0.21	15.83077248	-0.0417824	0.73240411	57.5595166	57.5595166	-79.42798792	-79.42798792	4.16480286	4.16480286	-30.30086556
0.22	15.80590839	-0.04183255	0.73241523	57.58268079	57.58268079	-79.41723469	-79.41723469	4.16898573	4.16898573	-30.35123037
0.23	15.77878226	-0.04189149	0.73243181	57.60708546	57.60708546	-79.40545427	-79.40545427	4.17290434	4.17290434	-30.40747893
0.24	15.74886437	-0.0419622	0.73244477	57.63474656	57.63474656	-79.39150835	-79.39150835	4.1769641	4.1769641	-30.47212987
0.25	15.71592104	-0.04204128	0.73245736	57.66516734	57.66516734	-79.37602145	-79.37602145	4.18103574	4.18103574	-30.5445586
0.26	15.67962986	-0.04212728	0.73246608	57.69911949	57.69911949	-79.35867418	-79.35867418	4.18523258	4.18523258	-30.62594292
0.27	15.63981491	-0.04221464	0.73247234	57.73636992	57.73636992	-79.33991743	-79.33991743	4.18951679	4.18951679	-30.71614378
0.28	15.59637934	-0.04229863	0.73247611	57.77697501	57.77697501	-79.32012997	-79.32012997	4.19390515	4.19390515	-30.81566745
0.29	15.54917998	-0.04237789	0.73248654	57.81879818	57.81879818	-79.30088715	-79.30088715	4.19825638	4.19825638	-30.92157419
0.3	15.49821356	-0.04244891	0.73249081	57.8653391	57.8653391	-79.28071061	-79.28071061	4.20299624	4.20299624	-31.0404163
0.31	15.44343308	-0.04251004	0.73249264	57.91518078	57.91518078	-79.26060437	-79.26060437	4.20815885	4.20815885	-31.17033233
0.32	15.38475455	-0.04255948	0.73249206	57.96834213	57.96834213	-79.24069627	-79.24069627	4.21392325	4.21392325	-31.31177276
0.33	15.32209068	-0.04259507	0.73248966	58.02479154	58.02479154	-79.22109632	-79.22109632	4.22044228	4.22044228	-31.4649545
0.34	15.25553115	-0.04263737	0.73248166	58.08845294	58.08845294	-79.20040688	-79.20040688	4.22820247	4.22820247	-31.63714947
0.35	15.18446043	-0.04261657	0.73248321	58.14750433	58.14750433	-79.18319473	-79.18319473	4.23606886	4.23606886	-31.80652128
0.36	15.10906632	-0.04259664	0.73248115	58.21383354	58.21383354	-79.16488044	-79.16488044	4.24517171	4.24517171	-31.99476204
0.37	15.02900988	-0.04255676	0.73248155	58.28373914	58.28373914	-79.14678425	-79.14678425	4.25498485	4.25498485	-32.19433935
0.38	14.9438051	-0.04249603	0.73248487	58.35756405	58.35756405	-79.12856824	-79.12856824	4.26532665	4.26532665	-32.40510786
0.39	14.8528759	-0.04241515	0.73249123	58.43578921	58.43578921	-79.10981308	-79.10981308	4.27599794	4.27599794	-32.62691269
0.4	14.75550939	-0.04231456	0.73250054	58.51898356	58.51898356	-79.09010084	-79.09010084	4.28683036	4.28683036	-32.85954614
0.41	14.65090708	-0.0421933	0.73251272	58.60771217	58.60771217	-79.06909854	-79.06909854	4.29773326	4.29773326	-33.10263774
0.42	14.53823376	-0.04204867	0.73252773	58.70250534	58.70250534	-79.04662044	-79.04662044	4.30872636	4.30872636	-33.35563362
0.43	14.41664145	-0.04187658	0.7325453	58.80389783	58.80389783	-79.02264197	-79.02264197	4.31995624	4.31995624	-33.61792473
0.44	14.2852198	-0.04167253	0.73256455	58.91254198	58.91254198	-78.99724203	-78.99724203	4.33171545	4.33171545	-33.88889924
0.45	14.14273102	-0.04143186	0.73258321	59.02955283	59.02955283	-78.97056467	-78.97056467	4.3445297	4.3445297	-34.16765673
0.46	13.9942319	-0.04117161	0.73261755	59.15006393	59.15006393	-78.94453398	-78.94453398	4.35657342	4.35657342	-34.45990949
0.47	13.83451049	-0.04086167	0.73264651	59.27824456	59.27824456	-78.91716663	-78.91716663	4.36995784	4.36995784	-34.76164266
0.48	13.66356618	-0.04051055	0.73267519	59.41439052	59.41439052	-78.88895793	-78.88895793	4.38494712	4.38494712	-35.07289399
0.49	13.1876696	-0.03993648	0.73196959	59.91898236	59.91898236	-78.90854781	-78.90854781	4.52285828	4.52285828	-35.01822173
0.5	13.01714338	-0.03950279	0.73205253	60.04611221	60.04611221	-78.88260964	-78.88260964	4.53246096	4.53246096	-35.37539431
0.51	12.83197064	-0.03902921	0.73212597	60.18346076	60.18346076	-78.85233868	-78.85233868	4.54517906	4.54517906	-35.74169455
0.52	12.6329715	-0.03851437	0.73219558	60.33122803	60.33122803	-78.81976208	-78.81976208	4.56089786	4.56089786	-36.11676764
0.53	12.41827712	-0.03794866	0.7322509	60.49164798	60.49164798	-78.785386	-78.785386	4.58020127	4.58020127	-36.49836569
0.54	12.18567948	-0.03734427	0.73228427	60.66819296	60.66819296	-78.74969578	-78.74969578	4.60359717	4.60359717	-36.88423405
0.55	11.57295193	-0.03654428	0.7313823	61.31188756	61.31188756	-78.7775933	-78.7775933	4.78666218	4.78666218	-36.8117121
0.56	11.34627069	-0.03589268	0.73146226	61.47565498	61.47565498	-78.74488435	-78.74488435	4.79922243	4.79922243	-37.2570581
0.57	11.09449817	-0.03519555	0.73152181	61.65964087	61.65964087	-78.70491439	-78.70491439	4.81663378	4.81663378	-37.6979385
0.58	10.81446039	-0.03443599	0.73155063	61.86750611	61.86750611	-78.66053406	-78.66053406	4.83954908	4.83954908	-38.12826202
0.59	9.9627371	-0.03343393	0.73017925	62.77631913	62.77631913	-78.69820978	-78.69820978	5.00521684	5.00521684	-37.85871119
0.6	9.69373543	-0.03260076	0.73028953	62.96220157	62.96220157	-78.65916394	-78.65916394	5.01969447	5.01969447	-38.34935797
0.61	9.38588906	-0.03169292	0.73037694	63.17733121	63.17733121	-78.60677007	-78.60677007	5.04196206	5.04196206	-38.81597563
0.62	8.45034147	-0.03051424	0.72896116	64.14731986	64.14731986	-78.62265815	-78.62265815	5.21498663	5.21498663	-38.51040776
0.63	8.15138341	-0.02945603	0.7291712	64.33847207	64.33847207	-78.58008583	-78.58008583	5.2312029	5.2312029	-39.02664816
